<svg width="486" height="304" viewBox="0 0 486 304" fill="none" xmlns="http://www.w3.org/2000/svg">
<path fill-rule="evenodd" clip-rule="evenodd" d="M0.904663 5C0.904663 2.23858 3.14324 0 5.90466 0L480.373 0C483.135 0 485.373 2.23858 485.373 5L485.373 298.333C485.373 301.094 483.135 303.333 480.373 303.333L5.90467 303.333C3.14325 303.333 0.904663 301.094 0.904663 298.333L0.904663 5Z" fill="#3F3B3B"/>
<rect width="52.3749" height="52" transform="translate(217.388 125.667)" fill="#3F3B3B"/>
<path fill-rule="evenodd" clip-rule="evenodd" d="M263.07 125.667H224.081C220.39 125.667 217.388 128.647 217.388 132.311V171.022C217.388 174.686 220.39 177.667 224.081 177.667H263.07C266.761 177.667 269.763 174.686 269.763 171.022V132.311C269.763 128.647 266.761 125.667 263.07 125.667ZM266.678 171.022C266.678 172.997 265.059 174.603 263.07 174.603H224.081C222.091 174.603 220.473 172.997 220.473 171.022V165.435L230.626 156.858C230.997 156.545 231.537 156.542 231.911 156.85L238.271 162.094C238.884 162.599 239.785 162.558 240.348 161.998L255.46 146.971C255.733 146.699 256.052 146.673 256.218 146.681C256.384 146.69 256.698 146.749 256.942 147.047L266.678 158.949V171.022H266.678ZM259.336 145.116L266.678 154.09V132.311C266.678 130.336 265.059 128.729 263.07 128.729H224.081C222.091 128.729 220.473 130.336 220.473 132.311V161.414L228.627 154.525C230.142 153.246 232.352 153.233 233.882 154.494L239.159 158.845L253.277 144.807C254.093 143.995 255.223 143.565 256.376 143.622C257.529 143.681 258.608 144.225 259.336 145.116Z" fill="#9DAFBD"/>
<path fill-rule="evenodd" clip-rule="evenodd" d="M226.497 139.492C226.497 135.417 229.836 132.101 233.941 132.101C238.046 132.101 241.386 135.417 241.386 139.492C241.386 143.568 238.046 146.884 233.941 146.884C229.836 146.884 226.497 143.568 226.497 139.492ZM229.584 139.493C229.584 141.878 231.539 143.818 233.941 143.818C236.344 143.818 238.298 141.878 238.298 139.493C238.298 137.107 236.344 135.167 233.941 135.167C231.539 135.167 229.584 137.107 229.584 139.493Z" fill="#9DAFBD"/>
</svg>
